<svg width="32" height="32" viewBox="0 0 32 32" fill="none" xmlns="http://www.w3.org/2000/svg">
<path d="M29.5 1.5C29.5 1.5 31 3.2735 31 5C31 9 27.069 8.7545 25.5 11.5C23.5 15 26 17 25 21.5C22.916 30.8775 10.5 29 10.5 29L2.68299 19.55C0.924986 7 12 5 12 5C8.49999 7 9.49999 10 11.5 11C13.5 12 16.031 10.332 16 8C15.9575 4.8 19.033 3.45 21.425 5C26.529 8.3135 29.5 3.5 29.5 1.5Z" fill="#222222"/>
<path d="M29.426 5.3416C28.851 6.02618 28.1398 6.58349 27.3375 6.97802C26.5353 7.37255 25.6597 7.59565 24.7665 7.6331C23.2762 7.58962 21.831 7.1119 20.6085 6.2586C20.2286 6.0041 19.7831 5.86516 19.326 5.8586C19.0911 5.85469 18.8578 5.89775 18.6398 5.98524C18.4218 6.07274 18.2235 6.2029 18.0565 6.3681C17.8607 6.586 17.7106 6.84091 17.6151 7.11777C17.5195 7.39464 17.4804 7.68785 17.5 7.9801C17.5074 8.60576 17.3895 9.22659 17.1534 9.80603C16.9172 10.3855 16.5676 10.9118 16.125 11.3541C15.686 11.8041 15.1625 12.1631 14.5846 12.4106C14.0067 12.658 13.3856 12.789 12.757 12.7961C12.0876 12.7976 11.4273 12.6421 10.829 12.3421C10.0715 11.9719 9.42681 11.4058 8.96189 10.7024C8.49697 9.99904 8.22872 9.18409 8.18497 8.3421V8.2776C5.81797 9.9571 3.43047 13.1156 4.11597 18.9276L4.04347 21.1926L10.5 29.0001C10.5 29.0001 22.916 30.8776 25 21.5001C26 17.0001 23.5 15.0001 25.5 11.5001C27.069 8.7546 31 9.0001 31 5.0001C30.9658 4.24508 30.7548 3.50864 30.384 2.8501C30.2663 3.74472 29.938 4.59863 29.426 5.3416Z" fill="#11181C"/>
<path d="M30 13.0001C30 13.0001 26.196 14.0886 27.5 18.0001C27.8625 19.1178 27.9145 20.3129 27.6502 21.4578C27.386 22.6027 26.8156 23.6543 26 24.5001C26 24.5001 30.5 23.0001 30.5 18.5001C30.5 16.0001 29 16.0001 30 13.0001ZM9.99998 3.00009C9.99998 3.00009 5.49998 3.50009 3.49998 7.00009C3.49998 7.00009 2.99998 4.00009 5.49998 2.50009C7.80898 1.11459 9.99998 3.00009 9.99998 3.00009Z" fill="#11181C"/>
<path d="M15 3.5C15.2761 3.5 15.5 3.27614 15.5 3C15.5 2.72386 15.2761 2.5 15 2.5C14.7239 2.5 14.5 2.72386 14.5 3C14.5 3.27614 14.7239 3.5 15 3.5Z" fill="#11181C"/>
<path d="M13 9C13.5523 9 14 8.55228 14 8C14 7.44772 13.5523 7 13 7C12.4477 7 12 7.44772 12 8C12 8.55228 12.4477 9 13 9Z" fill="#11181C"/>
<path d="M27 28.5C27.2761 28.5 27.5 28.2761 27.5 28C27.5 27.7239 27.2761 27.5 27 27.5C26.7239 27.5 26.5 27.7239 26.5 28C26.5 28.2761 26.7239 28.5 27 28.5Z" fill="#11181C"/>
<path d="M9 31C13.4183 31 17 27.4183 17 23C17 18.5817 13.4183 15 9 15C4.58172 15 1 18.5817 1 23C1 27.4183 4.58172 31 9 31Z" fill="#11181C"/>
<path d="M3.34298 28.6568C3.50798 28.8213 3.68048 28.9723 3.85548 29.1198C5.55197 29.9862 7.50196 30.2189 9.35467 29.7759C11.2074 29.3329 12.8412 28.2433 13.9622 26.7031C15.0833 25.163 15.6179 23.2733 15.47 21.3741C15.3221 19.475 14.5014 17.6909 13.1555 16.3428C12.9905 16.1783 12.818 16.0273 12.643 15.8798C10.9465 15.0134 8.99651 14.7807 7.1438 15.2238C5.29109 15.6668 3.65727 16.7563 2.53623 18.2965C1.4152 19.8367 0.88054 21.7263 1.02843 23.6255C1.17632 25.5247 1.99705 27.3088 3.34298 28.6568Z" fill="#222222"/>
<path d="M4.93399 24.9443L5.99499 23.8838C6.04274 23.8377 6.08083 23.7825 6.10704 23.7215C6.13324 23.6605 6.14704 23.5949 6.14761 23.5285C6.14819 23.4622 6.13554 23.3963 6.1104 23.3349C6.08526 23.2734 6.04813 23.2176 6.00119 23.1706C5.95424 23.1237 5.89841 23.0866 5.83696 23.0614C5.77552 23.0363 5.70968 23.0236 5.64329 23.0242C5.5769 23.0248 5.51129 23.0386 5.45029 23.0648C5.38928 23.091 5.33411 23.1291 5.28799 23.1768L4.22699 24.2373C4.13591 24.3316 4.08551 24.4579 4.08665 24.589C4.08779 24.7201 4.14037 24.8455 4.23308 24.9382C4.32578 25.031 4.45119 25.0835 4.58229 25.0847C4.71339 25.0858 4.83969 25.0354 4.93399 24.9443ZM7.40899 22.4693L8.46949 21.4088C8.56351 21.3151 8.61643 21.1878 8.61662 21.055C8.61681 20.9223 8.56424 20.7949 8.47049 20.7008C8.37673 20.6068 8.24947 20.5539 8.11669 20.5537C7.98392 20.5535 7.85651 20.6061 7.76249 20.6998L6.69999 21.7623C6.60891 21.8566 6.55851 21.9829 6.55965 22.114C6.56079 22.2451 6.61337 22.3705 6.70608 22.4632C6.79878 22.556 6.92419 22.6085 7.05529 22.6097C7.18639 22.6108 7.31269 22.5604 7.40699 22.4693H7.40899ZM9.88399 19.9948L10.9445 18.9338C10.9922 18.8877 11.0303 18.8325 11.0565 18.7715C11.0827 18.7105 11.0965 18.6449 11.0971 18.5785C11.0977 18.5122 11.085 18.4463 11.0599 18.3849C11.0348 18.3234 10.9976 18.2676 10.9507 18.2206C10.9037 18.1737 10.8479 18.1366 10.7865 18.1114C10.725 18.0863 10.6592 18.0736 10.5928 18.0742C10.5264 18.0748 10.4608 18.0886 10.3998 18.1148C10.3388 18.141 10.2836 18.1791 10.2375 18.2268L9.17699 19.2878C9.08591 19.3821 9.03551 19.5084 9.03665 19.6395C9.03779 19.7706 9.09037 19.896 9.18308 19.9887C9.27578 20.0815 9.40119 20.134 9.53229 20.1352C9.66338 20.1363 9.78969 20.0859 9.88399 19.9948ZM8.11599 26.0048L7.05549 27.0658C6.96441 27.1601 6.91401 27.2864 6.91515 27.4175C6.91629 27.5486 6.96887 27.674 7.06158 27.7667C7.15428 27.8595 7.27969 27.912 7.41079 27.9132C7.54189 27.9143 7.66819 27.8639 7.76249 27.7728L8.82299 26.7118C8.91407 26.6175 8.96446 26.4912 8.96332 26.3601C8.96219 26.229 8.9096 26.1036 8.8169 26.0109C8.72419 25.9182 8.59879 25.8656 8.46769 25.8645C8.33659 25.8634 8.21029 25.9138 8.11599 26.0048ZM10.591 23.5303L9.53049 24.5908C9.48393 24.6373 9.44698 24.6924 9.42173 24.7531C9.39649 24.8138 9.38345 24.8789 9.38336 24.9446C9.38326 25.0104 9.39612 25.0755 9.42119 25.1363C9.44627 25.197 9.48307 25.2523 9.52949 25.2988C9.57591 25.3454 9.63105 25.3823 9.69175 25.4076C9.75245 25.4328 9.81754 25.4459 9.88328 25.446C10.0161 25.4462 10.1435 25.3936 10.2375 25.2998L11.3 24.2373C11.3911 24.143 11.4415 24.0167 11.4403 23.8856C11.4392 23.7545 11.3866 23.6291 11.2939 23.5364C11.2012 23.4437 11.0758 23.3911 10.9447 23.39C10.8136 23.3889 10.6873 23.4393 10.593 23.5303H10.591ZM13.066 21.0553L12.005 22.1158C11.9572 22.162 11.9191 22.2171 11.8929 22.2781C11.8667 22.3391 11.8529 22.4048 11.8524 22.4711C11.8518 22.5375 11.8644 22.6034 11.8896 22.6648C11.9147 22.7263 11.9518 22.7821 11.9988 22.829C12.0457 22.876 12.1016 22.9131 12.163 22.9383C12.2245 22.9634 12.2903 22.976 12.3567 22.9755C12.4231 22.9749 12.4887 22.9611 12.5497 22.9349C12.6107 22.9087 12.6659 22.8706 12.712 22.8228L13.773 21.7623C13.8641 21.668 13.9145 21.5417 13.9133 21.4106C13.9122 21.2795 13.8596 21.1541 13.7669 21.0614C13.6742 20.9687 13.5488 20.9161 13.4177 20.915C13.2866 20.9139 13.1603 20.9643 13.066 21.0553ZM2.38499 27.4928L3.51999 26.3583C3.61394 26.2645 3.66678 26.1372 3.66687 26.0044C3.66696 25.8717 3.61431 25.7443 3.52049 25.6503C3.42667 25.5564 3.29937 25.5036 3.16659 25.5035C3.03382 25.5034 2.90644 25.556 2.81249 25.6498L1.86249 26.5998C2.01712 26.9085 2.19166 27.2068 2.38499 27.4928ZM12.3585 17.5198L13.493 16.3848C13.2081 16.1911 12.911 16.0161 12.6035 15.8608L11.6535 16.8108C11.5597 16.9046 11.5069 17.0318 11.5069 17.1644C11.5068 17.297 11.5595 17.4243 11.6532 17.5181C11.747 17.6119 11.8742 17.6646 12.0068 17.6647C12.1394 17.6647 12.2667 17.6121 12.3605 17.5183L12.3585 17.5198Z" fill="#F1F8FF"/>
<path d="M5.64151 28.4798L4.50701 29.6148C4.79187 29.8085 5.08899 29.9836 5.39651 30.1388L6.34651 29.1888C6.44033 29.0951 6.49306 28.9679 6.49311 28.8353C6.49316 28.7026 6.44051 28.5754 6.34676 28.4816C6.253 28.3878 6.12582 28.335 5.99318 28.335C5.86055 28.3349 5.73333 28.3876 5.63951 28.4813L5.64151 28.4798ZM14.48 20.3498C14.5264 20.3963 14.5816 20.4332 14.6423 20.4584C14.703 20.4835 14.7681 20.4965 14.8338 20.4965C14.8995 20.4965 14.9645 20.4835 15.0252 20.4584C15.0859 20.4332 15.1411 20.3963 15.1875 20.3498L16.1375 19.3998C15.9823 19.0923 15.8072 18.7952 15.6135 18.5103L14.4785 19.6448C14.3856 19.7387 14.3336 19.8655 14.3339 19.9976C14.3341 20.1297 14.3867 20.2563 14.48 20.3498ZM3.34301 28.6568C3.46251 28.7758 3.58951 28.8823 3.71451 28.9923L14.9925 17.7143C14.8825 17.5893 14.776 17.4643 14.657 17.3428C14.538 17.2213 14.4105 17.1173 14.2855 17.0073L3.00751 28.2853C3.11751 28.4103 3.22401 28.5373 3.34301 28.6568Z" fill="#DCEDFF"/>
<path d="M6.35001 28.4801C6.25624 28.3864 6.12909 28.3337 5.99651 28.3337C5.86393 28.3337 5.73677 28.3864 5.64301 28.4801L4.65001 29.4706C5.00441 29.6052 5.36801 29.7141 5.73801 29.7966L6.35001 29.1876C6.3965 29.1412 6.43338 29.086 6.45854 29.0253C6.4837 28.9646 6.49665 28.8996 6.49665 28.8339C6.49665 28.7682 6.4837 28.7031 6.45854 28.6424C6.43338 28.5817 6.3965 28.5266 6.35001 28.4801ZM14.48 20.3501C14.5264 20.3966 14.5816 20.4335 14.6423 20.4587C14.703 20.4838 14.768 20.4968 14.8338 20.4968C14.8995 20.4968 14.9645 20.4838 15.0252 20.4587C15.0859 20.4335 15.1411 20.3966 15.1875 20.3501L15.2965 20.2406C15.214 19.8706 15.1051 19.507 14.9705 19.1526L14.48 19.6431C14.3863 19.7369 14.3336 19.864 14.3336 19.9966C14.3336 20.1292 14.3863 20.2564 14.48 20.3501ZM3.34301 28.6571C3.46251 28.7761 3.58951 28.8826 3.71451 28.9926L14.5265 18.1811C14.3619 17.8818 14.1782 17.5933 13.9765 17.3176L3.00751 28.2856C3.11751 28.4106 3.22401 28.5376 3.34301 28.6571Z" fill="#F1F8FF"/>
</svg>
